<svg width="540" height="294" viewBox="0 0 540 294" fill="none" xmlns="http://www.w3.org/2000/svg">
<path d="M506.986 140.102C486.781 187.889 433.081 229.117 390.527 257.186C379.026 264.769 364.124 266.751 351.862 259.366C333.195 248.132 316.117 235.37 299.18 221.575C272.661 199.974 244.885 171.822 231.431 140.102C223.554 121.524 222.735 102.029 228.229 82.931C234.542 60.9912 250.362 43.2477 268.648 34.6486C304.955 17.5824 344.465 29.9401 369.221 62.982C393.87 30.1631 432.957 17.7063 469.206 34.376C487.542 42.8017 503.519 60.413 509.99 82.2867C515.691 101.558 514.929 121.309 506.986 140.102Z" fill="#C972E5"/>
<path d="M376.367 104.82C372.317 128.04 420.917 133.17 424.967 158.01C427.397 173.13 407.687 189.33 384.197 189.87L383.657 190.14C366.377 190.41 346.397 185.01 340.457 172.05C331.007 151.26 376.637 147.21 374.747 170.97C373.397 185.82 385.817 184.47 387.707 175.56C393.107 152.61 342.617 150.72 339.377 123.72C336.947 103.74 355.847 91.05 379.877 90.24H380.417C397.427 89.97 417.677 95.1 423.617 108.33C433.067 129.12 387.437 133.17 389.597 109.41C390.677 94.56 377.717 95.64 376.367 104.82Z" fill="black"/>
<path d="M343.383 183.39C346.083 185.55 346.353 190.14 340.413 190.14H286.953C284.253 190.14 283.173 186.63 285.873 184.47C295.323 177.45 296.943 171.51 296.943 161.52V100.77C296.943 90.78 295.323 84.84 285.873 77.82C283.173 75.66 284.253 72.42 286.953 72.42C312.873 72.42 324.753 54.6 334.743 52.71C340.413 51.36 337.983 55.95 337.443 59.46C327.993 111.03 333.393 175.83 343.383 183.39Z" fill="black"/>
<path d="M283.694 190.14H231.044C228.344 190.14 227.264 186.63 229.964 184.47C239.414 177.45 241.034 171.51 241.034 161.52V138.84C241.034 128.85 239.414 122.91 229.964 115.62C227.264 113.46 228.344 110.22 231.044 110.22C256.964 110.22 267.764 92.67 278.024 90.51C283.694 89.43 280.994 93.75 280.454 97.26C273.164 145.32 276.404 175.83 286.394 183.39C289.364 185.55 289.364 190.14 283.694 190.14ZM248.594 92.13C237.794 92.13 230.774 83.22 233.204 72.42C235.634 61.35 246.434 52.71 257.504 52.71C268.304 52.71 275.324 61.35 272.894 72.42C270.464 83.22 259.664 92.13 248.594 92.13Z" fill="black"/>
<path d="M231.662 184.47C234.362 186.63 233.552 190.14 230.582 190.14H203.042C188.462 190.14 182.792 177.18 182.792 177.18C176.852 185.01 167.132 190.14 156.332 190.14C138.242 190.14 123.392 175.83 123.392 158.28C123.392 140.73 138.242 126.42 156.332 126.42C167.132 126.42 176.852 131.55 182.792 139.38V131.28C182.792 115.62 176.852 97.8 167.132 97.8C163.082 97.8 163.082 104.28 166.322 111.3C171.992 124.53 131.492 129.93 131.492 114.27C131.492 102.66 144.992 90.24 169.832 90.24C198.722 90.24 220.592 110.22 220.592 139.38V161.52C220.592 171.51 222.212 177.45 231.662 184.47ZM168.212 175.56C175.772 175.56 181.712 167.73 181.712 158.28C181.712 148.83 175.772 141 168.212 141C160.922 141 154.982 148.83 154.982 158.28C154.982 167.73 160.922 175.56 168.212 175.56Z" fill="black"/>
<path d="M132.785 184.47C135.485 186.63 134.405 190.14 131.705 190.14H77.975C72.305 190.14 72.575 185.82 75.275 183.39C92.555 167.73 84.725 102.66 66.095 102.66C60.695 102.66 55.295 110.76 50.705 121.02C47.735 155.31 51.515 177.18 59.615 183.39C62.585 185.55 62.585 190.14 56.915 190.14H4.26499C1.56499 190.14 0.484993 186.63 3.18499 184.47C12.635 177.45 14.255 171.51 14.255 161.52V138.84C14.255 128.85 12.635 122.91 3.18499 115.62C0.484993 113.46 1.56499 110.22 4.26499 110.22C30.185 110.22 40.985 92.67 51.245 90.51C56.915 89.43 54.215 93.75 53.675 97.26L52.865 102.93C58.265 95.91 65.285 90.24 73.925 90.24C103.085 90.24 121.715 114 121.715 143.7V161.52C121.715 171.51 123.335 177.45 132.785 184.47Z" fill="black"/>
<path d="M401.706 223.344C414.026 223.344 423.994 232.64 423.994 244.064C423.994 255.488 414.026 264.784 401.706 264.784C389.274 264.784 379.306 255.488 379.306 244.064C379.306 232.64 389.274 223.344 401.706 223.344ZM401.706 261.648C405.178 261.648 408.09 253.696 408.09 244.064C408.09 234.32 405.178 226.48 401.706 226.48C398.122 226.48 395.21 234.32 395.21 244.064C395.21 253.696 398.122 261.648 401.706 261.648Z" fill="black"/>
<path d="M383.858 262.432C384.978 263.328 384.53 264.784 383.41 264.784H361.122C358.77 264.784 358.882 262.992 360.002 261.984C367.17 255.488 363.922 228.496 356.194 228.496C353.954 228.496 351.714 231.856 349.81 236.112C348.578 250.336 350.146 259.408 353.506 261.984C354.738 262.88 354.738 264.784 352.386 264.784H330.546C329.426 264.784 328.978 263.328 330.098 262.432C334.018 259.52 334.69 257.056 334.69 252.912V243.504C334.69 239.36 334.018 236.896 330.098 233.872C328.978 232.976 329.426 231.632 330.546 231.632C341.298 231.632 345.778 224.352 350.034 223.456C352.386 223.008 351.266 224.8 351.042 226.256L350.706 228.608C352.946 225.696 355.858 223.344 359.442 223.344C371.538 223.344 379.266 233.2 379.266 245.52V252.912C379.266 257.056 379.938 259.52 383.858 262.432Z" fill="black"/>
<path d="M330.803 262.432C331.923 263.328 331.587 264.784 330.355 264.784H318.931C312.883 264.784 310.531 259.408 310.531 259.408C308.067 262.656 304.035 264.784 299.555 264.784C292.051 264.784 285.891 258.848 285.891 251.568C285.891 244.288 292.051 238.352 299.555 238.352C304.035 238.352 308.067 240.48 310.531 243.728V240.368C310.531 233.872 308.067 226.48 304.035 226.48C302.355 226.48 302.355 229.168 303.699 232.08C306.051 237.568 289.251 239.808 289.251 233.312C289.251 228.496 294.851 223.344 305.155 223.344C317.139 223.344 326.211 231.632 326.211 243.728V252.912C326.211 257.056 326.883 259.52 330.803 262.432ZM304.483 258.736C307.619 258.736 310.083 255.488 310.083 251.568C310.083 247.648 307.619 244.4 304.483 244.4C301.459 244.4 298.995 247.648 298.995 251.568C298.995 255.488 301.459 258.736 304.483 258.736Z" fill="black"/>
<path d="M286.187 226.256C284.059 239.696 284.171 258.96 286.523 270.496C289.323 283.824 279.131 293.12 263.899 293.12C247.323 293.12 239.931 280.016 249.003 273.744C257.627 267.696 264.683 275.648 259.979 280.464C256.059 284.496 264.011 291.664 269.051 288.64C276.555 284.272 269.387 272.064 269.387 249.552C269.387 240.256 268.603 236.896 264.795 233.872C263.563 232.976 264.011 231.632 265.243 231.632C275.883 231.632 280.923 224.352 285.067 223.456C287.419 223.008 286.411 224.8 286.187 226.256ZM272.971 224.128C268.379 224.128 265.579 220.432 266.587 215.952C267.483 211.36 271.963 207.776 276.555 207.776C281.035 207.776 283.947 211.36 282.939 215.952C281.931 220.432 277.451 224.128 272.971 224.128Z" fill="black"/>
<path d="M265.352 223.344C266.696 223.344 266.472 224.8 265.016 225.696C261.096 227.936 259.976 231.072 258.632 235.216L251.912 257.056L247.096 272.512C241.608 288.864 233.544 293.008 227.048 293.008C214.84 293.008 210.024 280.8 215.176 273.968C221.336 265.904 234.328 268.592 232.312 277.552C230.072 287.184 239.256 285.504 245.192 268.368L246.424 264.784H239.368C234.888 264.784 234.216 263.104 232.984 259.184L228.616 245.408C224.584 231.968 221.784 228.048 218.648 226.144C217.192 225.248 216.52 223.344 218.984 223.344H243.4C244.52 223.344 245.08 224.464 244.52 225.696C238.808 238.128 248.104 255.376 248.664 256.384L248.888 256.72L249.112 255.712C249.112 255.712 255.832 230.96 251.24 225.696C250.456 224.688 250.904 223.344 252.36 223.344H265.352Z" fill="black"/>
<path d="M200.565 223.344C212.885 223.344 222.965 232.64 222.965 244.064C222.965 255.488 212.885 264.784 200.565 264.784H173.685C172.565 264.784 172.117 263.328 173.237 262.432C177.157 259.52 177.829 257.056 177.829 252.912V227.712C177.829 223.568 177.157 221.104 173.237 218.192C172.117 217.296 172.565 215.952 173.685 215.952C184.437 215.952 189.365 208.56 193.509 207.776C195.861 207.216 194.853 209.12 194.629 210.576C193.845 215.056 193.285 219.872 192.949 224.576C195.301 223.792 197.877 223.344 200.565 223.344ZM200.565 261.648C204.149 261.648 207.061 253.696 207.061 244.064C207.061 234.32 204.149 226.48 200.565 226.48C196.981 226.48 194.069 234.32 194.069 244.064C194.069 253.696 196.981 261.648 200.565 261.648Z" fill="black"/>
<path d="M37.6989 74.81H46.6889V78H34.3639V57.7H46.5439V60.89H37.6989V66.168H45.8189V69.329H37.6989V74.81Z" fill="black"/>
<path d="M28.1311 57.7H31.4661V78H28.1311V69.213H19.4311V78H16.0961V57.7H19.4311V66.023H28.1311V57.7Z" fill="black"/>
<path d="M14.79 57.7V60.89H9.077V78H5.742V60.89H0V57.7H14.79Z" fill="black"/>
<path d="M134.865 236.4C136.593 236.4 138.027 237.006 139.167 238.218C140.319 239.43 140.895 240.924 140.895 242.7C140.895 244.464 140.319 245.958 139.167 247.182C138.027 248.394 136.593 249 134.865 249H129.915V236.4H134.865ZM134.865 247.02C136.053 247.02 137.019 246.612 137.763 245.796C138.519 244.98 138.897 243.948 138.897 242.7C138.897 241.44 138.519 240.408 137.763 239.604C137.019 238.788 136.053 238.38 134.865 238.38H131.985V247.02H134.865Z" fill="black"/>
<path d="M129.104 236.4V238.38H125.558V249H123.488V238.38H119.924V236.4H129.104Z" fill="black"/>
<path d="M115.844 249.234C114.632 249.234 113.6 248.958 112.748 248.406C111.908 247.854 111.32 247.098 110.984 246.138L112.766 245.094C113.27 246.51 114.314 247.218 115.898 247.218C116.678 247.218 117.26 247.068 117.644 246.768C118.04 246.456 118.238 246.054 118.238 245.562C118.238 245.046 118.028 244.656 117.608 244.392C117.188 244.116 116.444 243.816 115.376 243.492C114.776 243.312 114.29 243.144 113.918 242.988C113.546 242.832 113.15 242.616 112.73 242.34C112.322 242.052 112.016 241.698 111.812 241.278C111.608 240.858 111.506 240.366 111.506 239.802C111.506 238.686 111.902 237.804 112.694 237.156C113.486 236.496 114.44 236.166 115.556 236.166C116.564 236.166 117.446 236.412 118.202 236.904C118.958 237.396 119.54 238.074 119.948 238.938L118.202 239.946C117.674 238.77 116.792 238.182 115.556 238.182C114.956 238.182 114.476 238.326 114.116 238.614C113.756 238.89 113.576 239.268 113.576 239.748C113.576 240.216 113.756 240.588 114.116 240.864C114.488 241.128 115.154 241.41 116.114 241.71C116.594 241.866 116.942 241.986 117.158 242.07C117.386 242.142 117.698 242.262 118.094 242.43C118.502 242.598 118.808 242.766 119.012 242.934C119.216 243.102 119.432 243.312 119.66 243.564C119.9 243.816 120.068 244.104 120.164 244.428C120.26 244.752 120.308 245.118 120.308 245.526C120.308 246.666 119.894 247.572 119.066 248.244C118.25 248.904 117.176 249.234 115.844 249.234Z" fill="black"/>
<path d="M104.895 247.02H110.475V249H102.825V236.4H110.385V238.38H104.895V241.656H109.935V243.618H104.895V247.02Z" fill="black"/>
<path d="M140.228 263.806V265.732H138.788V268H136.7V265.732H130.508V263.806L134.846 255.4H137.096L132.758 263.806H136.7V260.53H138.788V263.806H140.228Z" fill="black"/>
<path d="M122.109 268V266.38L126.501 261.898C127.569 260.83 128.103 259.906 128.103 259.126C128.103 258.514 127.917 258.04 127.545 257.704C127.185 257.356 126.723 257.182 126.159 257.182C125.103 257.182 124.323 257.704 123.819 258.748L122.073 257.722C122.469 256.882 123.027 256.246 123.747 255.814C124.467 255.382 125.265 255.166 126.141 255.166C127.245 255.166 128.193 255.514 128.985 256.21C129.777 256.906 130.173 257.854 130.173 259.054C130.173 260.338 129.459 261.706 128.031 263.158L125.187 266.002H130.407V268H122.109Z" fill="black"/>
<path d="M120.503 266.452C119.639 267.64 118.427 268.234 116.867 268.234C115.307 268.234 114.089 267.64 113.213 266.452C112.349 265.264 111.917 263.68 111.917 261.7C111.917 259.72 112.349 258.136 113.213 256.948C114.089 255.76 115.307 255.166 116.867 255.166C118.427 255.166 119.639 255.76 120.503 256.948C121.379 258.136 121.817 259.72 121.817 261.7C121.817 263.68 121.379 265.264 120.503 266.452ZM116.867 266.218C117.803 266.218 118.517 265.828 119.009 265.048C119.501 264.268 119.747 263.152 119.747 261.7C119.747 260.248 119.501 259.132 119.009 258.352C118.517 257.572 117.803 257.182 116.867 257.182C115.943 257.182 115.229 257.572 114.725 258.352C114.233 259.132 113.987 260.248 113.987 261.7C113.987 263.152 114.233 264.268 114.725 265.048C115.229 265.828 115.943 266.218 116.867 266.218Z" fill="black"/>
<path d="M103.123 268V266.38L107.515 261.898C108.583 260.83 109.117 259.906 109.117 259.126C109.117 258.514 108.931 258.04 108.559 257.704C108.199 257.356 107.737 257.182 107.173 257.182C106.117 257.182 105.337 257.704 104.833 258.748L103.087 257.722C103.483 256.882 104.041 256.246 104.761 255.814C105.481 255.382 106.279 255.166 107.155 255.166C108.259 255.166 109.207 255.514 109.999 256.21C110.791 256.906 111.187 257.854 111.187 259.054C111.187 260.338 110.473 261.706 109.045 263.158L106.201 266.002H111.421V268H103.123Z" fill="black"/>
<path d="M401.934 5.55935L403.951 4.78363L408.649 17.0659L407.071 17.6693L398.09 11.5497L401.279 19.8844L399.262 20.6601L394.565 8.37782L396.142 7.77448L405.123 13.8941L401.934 5.55935Z" fill="black"/>
<path d="M424.025 13.6096L422.655 11.1618L417.147 12.153L416.708 14.9198L414.398 15.3335L416.777 1.55145L419.328 1.09464L426.327 13.1959L424.034 13.6096H424.025ZM417.492 10.0327L421.595 9.30007L418.5 3.82691L417.492 10.0327Z" fill="black"/>
<path d="M431.265 0.0775724L433.42 0L433.894 13.1356L431.739 13.2132L431.265 0.0775724Z" fill="black"/>
<path d="M442.548 11.3859L447.883 11.8341L447.711 13.8941L440.221 13.2649L441.324 0.163773L443.479 0.344775L442.548 11.3859Z" fill="black"/>
<path d="M469.457 19.3155L469.474 16.5143L464.199 14.6526L462.449 16.8418L460.234 16.0575L469.112 5.24907L471.551 6.11098L471.655 20.0913L469.457 19.3155ZM465.535 12.9718L469.465 14.3595V8.06753L465.535 12.9718Z" fill="black"/>
<path d="M483.497 26.4091V20.8756L481.274 19.6L478.878 23.7458L477.007 22.6684L483.584 11.2825L488.135 13.9113C489.152 14.4974 489.815 15.3507 490.117 16.4712C490.419 17.5917 490.272 18.6605 489.686 19.6775C489.264 20.4015 488.678 20.9445 487.91 21.3065C487.143 21.6685 486.35 21.7892 485.523 21.6685L485.557 27.5899L483.506 26.4091H483.497ZM484.437 14.1096L482.239 17.9192L484.92 19.4707C485.419 19.7551 485.945 19.8154 486.506 19.6517C487.066 19.4879 487.497 19.1345 487.807 18.6001C488.117 18.0657 488.203 17.5227 488.066 16.9453C487.928 16.3764 487.617 15.9454 487.117 15.661L484.437 14.1096Z" fill="black"/>
<path d="M505.14 26.3401L503.821 27.9261L500.977 25.5558L493.884 34.0715L492.229 32.6924L499.322 24.1767L496.469 21.7978L497.788 20.2119L505.149 26.3401H505.14Z" fill="black"/>
<path d="M508.467 50.3359C507.726 49.3102 507.329 48.2759 507.278 47.2157C507.226 46.1642 507.502 45.1988 508.114 44.3283L510.088 45.1988C509.2 46.4917 509.234 47.8104 510.208 49.1464C510.682 49.8101 511.174 50.2066 511.673 50.3531C512.173 50.4996 512.63 50.4134 513.044 50.1204C513.483 49.8015 513.682 49.3877 513.656 48.862C513.63 48.3362 513.423 47.5346 513.044 46.4314C512.828 45.8108 512.673 45.3023 512.578 44.8886C512.484 44.4748 512.432 44.0094 512.415 43.4922C512.397 42.9665 512.509 42.4924 512.742 42.0615C512.975 41.6305 513.328 41.2426 513.802 40.8979C514.742 40.217 515.733 40.0101 516.776 40.2773C517.819 40.5445 518.672 41.1565 519.353 42.0959C519.965 42.9492 520.301 43.8456 520.344 44.7851C520.387 45.7246 520.172 46.6296 519.689 47.5088L517.767 46.6469C518.439 45.4833 518.396 44.38 517.638 43.3285C517.267 42.82 516.854 42.501 516.397 42.3718C515.94 42.2425 515.509 42.32 515.104 42.6131C514.707 42.8975 514.509 43.2768 514.501 43.7508C514.492 44.2249 514.656 44.9575 514.992 45.9573C515.156 46.4572 515.268 46.8279 515.337 47.0606C515.406 47.2933 515.492 47.6381 515.595 48.0776C515.699 48.5172 515.742 48.8792 515.724 49.155C515.707 49.4308 515.664 49.7411 515.595 50.0945C515.526 50.4479 515.38 50.7582 515.164 51.0426C514.949 51.3271 514.664 51.5856 514.328 51.8356C513.363 52.5337 512.346 52.7406 511.286 52.4475C510.217 52.1631 509.277 51.4477 508.467 50.3272V50.3359Z" fill="black"/>
<path d="M529.808 60.3513L527.972 61.2908L526.283 57.9983L516.414 63.0405L515.431 61.1184L525.3 56.0762L523.611 52.7665L525.447 51.827L529.808 60.3513Z" fill="black"/>
<path d="M523.835 79.5548C522.758 78.9256 522.008 77.9085 521.568 76.5122C521.129 75.1159 521.163 73.8489 521.68 72.7198C522.197 71.5821 523.12 70.8063 524.456 70.384L532.833 67.7379L533.48 69.7979L525.223 72.4095C524.456 72.6508 523.921 73.0646 523.611 73.6593C523.301 74.254 523.283 74.9953 523.568 75.8916C523.852 76.788 524.292 77.3914 524.887 77.693C525.481 77.9947 526.162 78.0292 526.929 77.7879L535.186 75.1763L535.833 77.2362L527.455 79.8823C526.119 80.3047 524.912 80.2012 523.835 79.5634V79.5548Z" fill="black"/>
<path d="M538.505 91.2079C538.746 92.992 538.324 94.5694 537.229 95.9226C536.135 97.2758 534.669 98.0774 532.833 98.3273C531.006 98.5773 529.386 98.1894 527.972 97.1723C526.559 96.1553 525.723 94.759 525.481 92.9662L524.792 87.8464L537.824 86.0881L538.514 91.2079H538.505ZM527.524 92.6904C527.688 93.9143 528.248 94.8624 529.196 95.5261C530.144 96.1898 531.265 96.4311 532.558 96.2587C533.859 96.0863 534.876 95.5519 535.609 94.6642C536.341 93.7764 536.626 92.7162 536.462 91.4923L536.057 88.5101L527.119 89.7168L527.524 92.699V92.6904Z" fill="black"/>
<path d="M539.565 104.99V107.153L526.429 107.205V105.042L539.565 104.99Z" fill="black"/>
<path d="M526.55 124.943C525.421 123.452 524.99 121.763 525.257 119.884C525.516 117.996 526.395 116.496 527.886 115.367C529.377 114.238 531.067 113.807 532.946 114.075C534.833 114.333 536.333 115.212 537.462 116.703C538.591 118.194 539.022 119.884 538.755 121.763C538.496 123.65 537.617 125.15 536.126 126.279C534.635 127.408 532.946 127.839 531.067 127.572C529.179 127.314 527.679 126.434 526.55 124.943ZM529.127 117.074C528.119 117.841 527.524 118.867 527.343 120.168C527.162 121.47 527.455 122.625 528.214 123.633C528.981 124.642 530.032 125.245 531.368 125.426C532.704 125.616 533.885 125.322 534.893 124.564C535.902 123.806 536.497 122.771 536.678 121.47C536.859 120.168 536.566 119.013 535.807 118.005C535.04 116.996 533.988 116.393 532.652 116.212C531.317 116.022 530.136 116.315 529.127 117.074Z" fill="black"/>
</svg>
